<svg width="59" height="40" viewBox="0 0 59 40" fill="none" xmlns="http://www.w3.org/2000/svg">
<mask id="mask0_878_43826" style="mask-type:alpha" maskUnits="userSpaceOnUse" x="0" y="0" width="59" height="40">
<rect x="0.335938" width="58.3333" height="40" fill="#016FD0"/>
</mask>
<g mask="url(#mask0_878_43826)">
<rect x="0.335938" width="58.3333" height="40" rx="3.33333" fill="#016FD0"/>
<path d="M11.6836 30.6012V21.4241H21.4004L22.443 22.7831L23.5199 21.4241H58.7897V29.9683C58.7897 29.9683 57.8674 30.592 56.8006 30.6012H37.271L36.0956 29.1545V30.6012H32.2439V28.1317C32.2439 28.1317 31.7178 28.4764 30.5803 28.4764H29.2693V30.6012H23.4375L22.3965 29.213L21.3395 30.6012H11.6836Z" fill="white"/>
<path d="M0.335938 14.5078L2.52713 9.39941H6.31656L7.56008 12.261V9.39941H12.2707L13.011 11.4676L13.7286 9.39941H34.8744V10.4392C34.8744 10.4392 35.986 9.39941 37.8129 9.39941L44.6739 9.42339L45.896 12.2475V9.39941H49.8381L50.923 11.0216V9.39941H54.9013V18.5765H50.923L49.8833 16.949V18.5765H44.0915L43.509 17.1299H41.952L41.379 18.5765H37.4512C35.8793 18.5765 34.8744 17.558 34.8744 17.558V18.5765H28.9522L27.7768 17.1299V18.5765H5.75518L5.17313 17.1299H3.62107L3.04313 18.5765H0.335938V14.5078Z" fill="white"/>
<path d="M3.30309 10.5305L0.347656 17.402H2.2718L2.81711 16.026H5.98728L6.52977 17.402H8.49629L5.54368 10.5305H3.30309ZM4.39655 12.1297L5.36286 14.5342H3.42741L4.39655 12.1297Z" fill="#016FD0"/>
<path d="M8.69922 17.4006V10.5291L11.4335 10.5392L13.0239 14.9695L14.5762 10.5291H17.2886V17.4006H15.5707V12.3374L13.7498 17.4006H12.2432L10.4171 12.3374V17.4006H8.69922Z" fill="#016FD0"/>
<path d="M18.4648 17.4006V10.5291H24.0706V12.0661H20.2008V13.2415H23.9802V14.6882H20.2008V15.9088H24.0706V17.4006H18.4648Z" fill="#016FD0"/>
<path d="M25.0625 10.5305V17.4021H26.7804V14.9609H27.5037L29.5635 17.4021H31.6628L29.4025 14.8705C30.3301 14.7922 31.2871 13.996 31.2871 12.7598C31.2871 11.3138 30.1521 10.5305 28.8854 10.5305H25.0625ZM26.7804 12.0676H28.7441C29.2152 12.0676 29.5579 12.4361 29.5579 12.7909C29.5579 13.2474 29.1139 13.5142 28.7695 13.5142H26.7804V12.0676Z" fill="#016FD0"/>
<path d="M33.7423 17.4006H31.9883V10.5291H33.7423V17.4006Z" fill="#016FD0"/>
<path d="M37.9048 17.4006H37.5262C35.6943 17.4006 34.582 15.9574 34.582 13.9931C34.582 11.9803 35.6818 10.5291 37.9952 10.5291H39.894V12.1565H37.9258C36.9867 12.1565 36.3225 12.8894 36.3225 14.0101C36.3225 15.3408 37.082 15.8997 38.1761 15.8997H38.6281L37.9048 17.4006Z" fill="#016FD0"/>
<path d="M41.6429 10.5305L38.6875 17.402H40.6116L41.157 16.026H44.3271L44.8696 17.402H46.8361L43.8835 10.5305H41.6429ZM42.7364 12.1297L43.7027 14.5342H41.7673L42.7364 12.1297Z" fill="#016FD0"/>
<path d="M47.0352 17.4006V10.5291H49.2193L52.008 14.8464V10.5291H53.7259V17.4006H51.6125L48.7531 12.9703V17.4006H47.0352Z" fill="#016FD0"/>
<path d="M12.8594 29.427V22.5554H18.4651V24.0925H14.5954V25.2679H18.3747V26.7145H14.5954V27.9352H18.4651V29.427H12.8594Z" fill="#016FD0"/>
<path d="M40.3281 29.427V22.5554H45.9339V24.0925H42.0641V25.2679H45.8254V26.7145H42.0641V27.9352H45.9339V29.427H40.3281Z" fill="#016FD0"/>
<path d="M18.6822 29.4269L21.4116 26.0336L18.6172 22.5554H20.7815L22.4457 24.7056L24.1155 22.5554H26.1951L23.4374 25.9912L26.1719 29.4269H24.0079L22.392 27.3107L20.8154 29.4269H18.6822Z" fill="#016FD0"/>
<path d="M26.375 22.5554V29.427H28.1381V27.257H29.9464C31.4765 27.257 32.6363 26.4453 32.6363 24.8667C32.6363 23.5589 31.7267 22.5554 30.1696 22.5554H26.375ZM28.1381 24.1094H30.0425C30.5368 24.1094 30.8901 24.4124 30.8901 24.9006C30.8901 25.3592 30.5386 25.6917 30.0368 25.6917H28.1381V24.1094Z" fill="#016FD0"/>
<path d="M33.3828 22.5554V29.427H35.1007V26.9858H35.824L37.8838 29.427H39.9832L37.7228 26.8954C38.6504 26.8171 39.6074 26.0209 39.6074 24.7847C39.6074 23.3387 38.4724 22.5554 37.2057 22.5554H33.3828ZM35.1007 24.0925H37.0644C37.5355 24.0925 37.8782 24.461 37.8782 24.8158C37.8782 25.2723 37.4342 25.5391 37.0899 25.5391H35.1007V24.0925Z" fill="#016FD0"/>
<path d="M46.7298 29.427V27.9352H50.1679C50.6766 27.9352 50.8969 27.6603 50.8969 27.3588C50.8969 27.0699 50.6773 26.7778 50.1679 26.7778H48.6143C47.2638 26.7778 46.5117 25.9551 46.5117 24.7198C46.5117 23.618 47.2005 22.5554 49.2072 22.5554H52.5526L51.8293 24.1015H48.936C48.3829 24.1015 48.2127 24.3917 48.2127 24.6689C48.2127 24.9538 48.4231 25.2679 48.8456 25.2679H50.4731C51.9785 25.2679 52.6317 26.1218 52.6317 27.2401C52.6317 28.4423 51.9038 29.427 50.3911 29.427H46.7298Z" fill="#016FD0"/>
<path d="M53.0306 29.427V27.9352H56.4687C56.9774 27.9352 57.1977 27.6603 57.1977 27.3588C57.1977 27.0699 56.9781 26.7778 56.4687 26.7778H54.9151C53.5646 26.7778 52.8125 25.9551 52.8125 24.7198C52.8125 23.618 53.5012 22.5554 55.508 22.5554H58.7851L58.1301 24.1015H55.2368C54.6837 24.1015 54.5134 24.3917 54.5134 24.6689C54.5134 24.9538 54.7238 25.2679 55.1464 25.2679H56.7738C58.2793 25.2679 58.9325 26.1218 58.9325 27.2401C58.9325 28.4423 58.2046 29.427 56.6919 29.427H53.0306Z" fill="#016FD0"/>
</g>
</svg>
