<svg width="59" height="40" viewBox="0 0 59 40" fill="none" xmlns="http://www.w3.org/2000/svg">
<rect width="58.3333" height="40" rx="3.42857" fill="black"/>
<path fill-rule="evenodd" clip-rule="evenodd" d="M29.5829 28.5948C27.5968 30.309 25.0204 31.3439 22.205 31.3439C15.9239 31.3439 10.832 26.193 10.832 19.839C10.832 13.4849 15.9239 8.33398 22.205 8.33398C25.0204 8.33398 27.5968 9.36888 29.5829 11.0831C31.569 9.36888 34.1454 8.33398 36.9608 8.33398C43.242 8.33398 48.3338 13.4849 48.3338 19.839C48.3338 26.193 43.242 31.3439 36.9608 31.3439C34.1454 31.3439 31.569 30.309 29.5829 28.5948Z" fill="#ED0006"/>
<path fill-rule="evenodd" clip-rule="evenodd" d="M29.582 28.5962C32.0278 26.486 33.5787 23.3457 33.5787 19.839C33.5787 16.3322 32.0278 13.192 29.582 11.0817C31.5679 9.36831 34.1437 8.33398 36.9583 8.33398C43.2394 8.33398 48.3313 13.4849 48.3313 19.839C48.3313 26.193 43.2394 31.3439 36.9583 31.3439C34.1437 31.3439 31.5679 30.3096 29.582 28.5962Z" fill="#F9A000"/>
<path fill-rule="evenodd" clip-rule="evenodd" d="M29.5856 11.0803C32.0319 13.1906 33.5831 16.3312 33.5831 19.8384C33.5831 23.3446 32.0327 26.4846 29.5874 28.5948C27.1411 26.4846 25.5898 23.3439 25.5898 19.8367C25.5898 16.3305 27.1403 13.1905 29.5856 11.0803Z" fill="#FF5E00"/>
</svg>
