<svg width="59" height="40" viewBox="0 0 59 40" fill="none" xmlns="http://www.w3.org/2000/svg">
<rect x="0.667969" width="58.3333" height="40" rx="3.33333" fill="url(#paint0_linear_878_43827)"/>
<path d="M26.0619 29.6157L26.4194 27.3448L25.6231 27.3263H21.8203L24.463 10.5694C24.4711 10.5188 24.4979 10.4717 24.5368 10.4382C24.5758 10.4047 24.6258 10.3862 24.6777 10.3862H31.0898C33.2185 10.3862 34.6875 10.8292 35.4545 11.7035C35.814 12.1137 36.0431 12.5423 36.1538 13.014C36.2699 13.5089 36.2721 14.1002 36.1586 14.8214L36.1503 14.874V15.3361L36.51 15.5398C36.8129 15.7005 37.0533 15.8844 37.2379 16.0949C37.5457 16.4456 37.7446 16.8913 37.8286 17.4197C37.9154 17.9632 37.8867 18.6098 37.7446 19.342C37.5805 20.1842 37.3152 20.9177 36.9571 21.5178C36.6275 22.0709 36.2078 22.5295 35.7095 22.885C35.2337 23.2227 34.6684 23.4791 34.0292 23.6432C33.4098 23.8044 32.7037 23.8859 31.9292 23.8859H31.4302C31.0734 23.8859 30.7267 24.0144 30.4548 24.2448C30.182 24.4799 30.0014 24.8011 29.9461 25.1525L29.9085 25.357L29.2768 29.3593L29.2481 29.5062C29.2406 29.5529 29.2276 29.5761 29.2086 29.5918C29.1914 29.606 29.1668 29.6157 29.1428 29.6157H26.0619Z" fill="#253B80"/>
<path d="M36.8494 14.928C36.8303 15.0503 36.8084 15.1754 36.7838 15.3039C35.9381 19.6454 33.0452 21.1453 29.3503 21.1453H27.4691C27.0173 21.1453 26.6366 21.4734 26.5661 21.9191L25.6029 28.0277L25.3302 29.7592C25.2843 30.0518 25.51 30.3157 25.8052 30.3157H29.1419C29.5371 30.3157 29.8726 30.0286 29.9348 29.6389L29.9676 29.4693L30.5959 25.4826L30.6363 25.264C30.6977 24.873 31.034 24.5859 31.4291 24.5859H31.9281C35.1608 24.5859 37.6916 23.2733 38.4313 19.4752C38.7402 17.8886 38.5802 16.5638 37.7626 15.6321C37.5153 15.3511 37.2083 15.118 36.8494 14.928Z" fill="#ADC9E3"/>
<path d="M35.9612 14.574C35.8321 14.5364 35.6987 14.5022 35.562 14.4715C35.4246 14.4414 35.2837 14.4147 35.1389 14.3915C34.6316 14.3095 34.0759 14.2705 33.4804 14.2705H28.4547C28.3309 14.2705 28.2135 14.2985 28.1082 14.3491C27.8764 14.4605 27.7042 14.68 27.6625 14.9486L26.5932 21.7203L26.5625 21.9178C26.6329 21.4721 27.0137 21.144 27.4655 21.144H29.3467C33.0416 21.144 35.9347 19.6435 36.7802 15.3027C36.8054 15.1742 36.8267 15.0491 36.8457 14.9268C36.6318 14.8133 36.4 14.7162 36.1505 14.6335C36.0891 14.613 36.0256 14.5932 35.9612 14.574Z" fill="#E6EFF6"/>
<path d="M27.6657 14.9493C27.7074 14.6806 27.8798 14.4612 28.1114 14.3504C28.2175 14.2998 28.3344 14.2718 28.4579 14.2718H33.4839C34.0793 14.2718 34.635 14.3108 35.1421 14.3928C35.2871 14.416 35.428 14.4427 35.5654 14.4728C35.7021 14.5036 35.8354 14.5377 35.9647 14.5753C36.0288 14.5945 36.0924 14.6143 36.1545 14.6341C36.4041 14.7168 36.6359 14.8146 36.8498 14.9274C37.1014 13.323 36.8478 12.2306 35.9804 11.2414C35.0241 10.1525 33.2979 9.68628 31.0893 9.68628H24.6771C24.2258 9.68628 23.8411 10.0144 23.7713 10.4608L21.1006 27.3899C21.0479 27.7249 21.3062 28.0271 21.6439 28.0271H25.6027L26.5966 21.7209L27.6657 14.9493Z" fill="white"/>
<defs>
<linearGradient id="paint0_linear_878_43827" x1="0.694011" y1="0.0195313" x2="59.0273" y2="40.0195" gradientUnits="userSpaceOnUse">
<stop stop-color="#0096D8"/>
<stop offset="1" stop-color="#003087"/>
</linearGradient>
</defs>
</svg>
