<svg width="59" height="40" viewBox="0 0 59 40" fill="none" xmlns="http://www.w3.org/2000/svg">
<rect x="0.667969" width="58.3333" height="40" rx="3.39565" fill="#00579F"/>
<path d="M25.6264 26.8046H22.3281L24.3911 14.0486H27.6892L25.6264 26.8046Z" fill="white"/>
<path d="M37.5815 14.3609C36.9309 14.1028 35.8991 13.8179 34.6232 13.8179C31.366 13.8179 29.0723 15.5548 29.0583 18.038C29.0312 19.8701 30.7005 20.8877 31.9489 21.4986C33.225 22.1229 33.6588 22.5303 33.6588 23.0867C33.6458 23.9413 32.6276 24.3352 31.678 24.3352C30.3612 24.3352 29.6556 24.1321 28.5834 23.6567L28.149 23.4529L27.6875 26.3163C28.4611 26.6687 29.8863 26.9815 31.366 26.9952C34.8268 26.9952 37.0799 25.2852 37.1066 22.6389C37.1198 21.1868 36.2383 20.0741 34.338 19.1649C33.1844 18.5813 32.4779 18.1877 32.4779 17.5905C32.4915 17.0476 33.0755 16.4916 34.3777 16.4916C35.45 16.4643 36.2378 16.7221 36.8346 16.98L37.1329 17.1154L37.5815 14.3609Z" fill="white"/>
<path d="M41.9624 22.2856C42.234 21.5528 43.2792 18.7166 43.2792 18.7166C43.2655 18.7438 43.5503 17.9702 43.7132 17.4953L43.9437 18.5945C43.9437 18.5945 44.5683 21.6478 44.7039 22.2856C44.1884 22.2856 42.6139 22.2856 41.9624 22.2856ZM46.0337 14.0486H43.4825C42.6957 14.0486 42.098 14.2791 41.7586 15.107L36.8594 26.8044H40.3202C40.3202 26.8044 40.8899 25.23 41.0124 24.8909C41.3921 24.8909 44.7587 24.8909 45.2472 24.8909C45.3419 25.3388 45.6407 26.8044 45.6407 26.8044H48.6946L46.0337 14.0486V14.0486Z" fill="white"/>
<path d="M19.5729 14.0486L16.3428 22.747L15.9898 20.9828C15.3926 18.9472 13.5197 16.7356 11.4297 15.636L14.3884 26.7911H17.8762L23.0606 14.0486H19.5729V14.0486Z" fill="white"/>
<path d="M13.3414 14.0486H8.03476L7.98047 14.3063C12.12 15.3649 14.8615 17.9165 15.9879 20.9834L14.8343 15.1208C14.6443 14.3061 14.0607 14.0755 13.3414 14.0486Z" fill="#FAA61A"/>
</svg>
